<svg width="25" height="25" viewBox="0 0 25 25" fill="none" xmlns="http://www.w3.org/2000/svg">
<path fill-rule="evenodd" clip-rule="evenodd" d="M4.80828 5.15175C4.81028 5.15175 4.76024 5.20379 4.69719 5.26584C4.45498 5.50104 3.95357 5.99045 3.94851 7.0143C3.94056 8.44649 4.88234 11.1057 9.41712 15.6395C13.9309 20.1513 16.5861 21.104 18.0213 21.104H18.0423C19.0662 21.099 19.5546 20.5966 19.7908 20.3554C19.8628 20.2814 19.9209 20.2273 19.9619 20.1933C20.9587 19.1905 21.4692 18.4438 21.4642 17.9654C21.4572 17.477 20.8497 16.8995 20.01 16.1009C19.7427 15.8467 19.4525 15.5704 19.1462 15.2642C18.3526 14.4725 17.9592 14.6076 17.0945 14.9119C15.8985 15.3312 14.2572 15.9017 11.707 13.3506C9.1529 10.7985 9.72438 9.15909 10.1427 7.96309C10.445 7.09837 10.5831 6.70404 9.78843 5.90938C9.47717 5.59912 9.19794 5.30488 8.94072 5.03465C8.14706 4.19995 7.57459 3.59645 7.08918 3.58944H7.08117C6.60177 3.58944 5.85715 4.10187 4.80328 5.15575C4.80628 5.15275 4.80728 5.15175 4.80828 5.15175ZM18.0223 22.6053C15.5282 22.6053 12.2765 20.6196 8.35624 16.7014C4.42096 12.7671 2.4323 9.50538 2.44723 7.00629C2.45632 5.35492 3.32204 4.50921 3.64731 4.19195C3.66433 4.17093 3.72237 4.11388 3.74239 4.09387C5.17759 2.65767 6.14539 2.07718 7.1082 2.08804C8.22613 2.10321 9.02179 2.9399 10.0286 3.99979C10.2778 4.26201 10.5481 4.54724 10.8493 4.84749C12.3105 6.30871 11.8942 7.50071 11.5599 8.4575C11.1956 9.50137 10.8803 10.4021 12.7679 12.2897C14.6575 14.1773 15.5582 13.862 16.5981 13.4947C17.5559 13.1604 18.7449 12.7421 20.2081 14.2033C20.5044 14.4995 20.7856 14.7668 21.0448 15.014C22.1097 16.0258 22.9504 16.8255 22.9646 17.9464C22.9764 18.9022 22.3959 19.876 20.9627 21.3102L20.3282 20.8799L20.8647 21.4043C20.5474 21.7296 19.7027 22.5963 18.0503 22.6053H18.0223Z" fill="white"/>
</svg>
