<svg width="19" height="19" viewBox="0 0 19 19" fill="none" xmlns="http://www.w3.org/2000/svg">
<g clip-path="url(#clip0_3_465)">
<path fill-rule="evenodd" clip-rule="evenodd" d="M0.148438 9.40888C0.148438 13.8871 3.4009 17.611 7.6547 18.3661V11.8604H5.40282V9.35858H7.6547V7.35666C7.6547 5.10479 9.10565 3.85424 11.1579 3.85424C11.8079 3.85424 12.509 3.95408 13.159 4.05391V6.35608H12.0083C10.9072 6.35608 10.6572 6.90629 10.6572 7.60737V9.35858H13.0592L12.6591 11.8604H10.6572V18.3661C14.911 17.611 18.1635 13.8879 18.1635 9.40888C18.1635 4.42697 14.1101 0.351074 9.15595 0.351074C4.20182 0.351074 0.148438 4.42697 0.148438 9.40888Z" fill="white"/>
</g>
<defs>
<clipPath id="clip0_3_465">
<rect width="18.015" height="18.015" fill="white" transform="translate(0.150146 0.349609)"/>
</clipPath>
</defs>
</svg>
