<svg width="19" height="19" viewBox="0 0 19 19" fill="none" xmlns="http://www.w3.org/2000/svg">
<g clip-path="url(#clip0_3_463)">
<path d="M9.87717 6.60242C8.35972 6.60242 7.12137 7.8408 7.12137 9.35827C7.12137 10.8757 8.35972 12.1141 9.87717 12.1141C11.3946 12.1141 12.633 10.8757 12.633 9.35827C12.633 7.8408 11.3946 6.60242 9.87717 6.60242ZM18.1425 9.35827C18.1425 8.21706 18.1528 7.08619 18.0887 5.94705C18.0247 4.62391 17.7228 3.44963 16.7553 2.48208C15.7857 1.51247 14.6135 1.2127 13.2904 1.14861C12.1492 1.08452 11.0184 1.09485 9.87923 1.09485C8.73805 1.09485 7.6072 1.08452 6.46808 1.14861C5.14497 1.2127 3.9707 1.51454 3.00317 2.48208C2.03358 3.45169 1.73381 4.62391 1.66972 5.94705C1.60563 7.08826 1.61597 8.21913 1.61597 9.35827C1.61597 10.4974 1.60563 11.6303 1.66972 12.7695C1.73381 14.0926 2.03565 15.2669 3.00317 16.2345C3.97277 17.2041 5.14497 17.5038 6.46808 17.5679C7.60927 17.632 8.74011 17.6217 9.87923 17.6217C11.0204 17.6217 12.1513 17.632 13.2904 17.5679C14.6135 17.5038 15.7878 17.202 16.7553 16.2345C17.7249 15.2648 18.0247 14.0926 18.0887 12.7695C18.1549 11.6303 18.1425 10.4995 18.1425 9.35827ZM9.87717 13.5985C7.53071 13.5985 5.637 11.7048 5.637 9.35827C5.637 7.01177 7.53071 5.11802 9.87717 5.11802C12.2236 5.11802 14.1173 7.01177 14.1173 9.35827C14.1173 11.7048 12.2236 13.5985 9.87717 13.5985ZM14.291 5.93465C13.7431 5.93465 13.3007 5.49222 13.3007 4.94436C13.3007 4.3965 13.7431 3.95407 14.291 3.95407C14.8388 3.95407 15.2813 4.3965 15.2813 4.94436C15.2814 5.07445 15.2559 5.2033 15.2062 5.32352C15.1565 5.44374 15.0836 5.55297 14.9916 5.64496C14.8996 5.73695 14.7904 5.80989 14.6701 5.8596C14.5499 5.90931 14.4211 5.93481 14.291 5.93465Z" fill="white"/>
</g>
<defs>
<clipPath id="clip0_3_463">
<rect width="18.015" height="18.015" fill="white" transform="translate(0.875732 0.349609)"/>
</clipPath>
</defs>
</svg>
