<svg width="19" height="19" viewBox="0 0 19 19" fill="none" xmlns="http://www.w3.org/2000/svg">
<path fill-rule="evenodd" clip-rule="evenodd" d="M1.35474 2.4817C1.35474 2.1158 1.50009 1.76488 1.75883 1.50614C2.01756 1.24741 2.36848 1.10205 2.73439 1.10205H16.4873C16.6687 1.10176 16.8483 1.13723 17.0159 1.20644C17.1835 1.27565 17.3358 1.37724 17.4641 1.50539C17.5924 1.63354 17.6941 1.78574 17.7635 1.95327C17.8329 2.1208 17.8686 2.30037 17.8685 2.4817V16.2347C17.8687 16.416 17.8331 16.5957 17.7638 16.7633C17.6945 16.9309 17.5929 17.0832 17.4647 17.2115C17.3365 17.3397 17.1842 17.4415 17.0166 17.5109C16.8491 17.5803 16.6695 17.6159 16.4881 17.6158H2.73439C2.55315 17.6158 2.37368 17.5801 2.20624 17.5107C2.03881 17.4413 1.88668 17.3397 1.75856 17.2115C1.63044 17.0833 1.52883 16.9311 1.45954 16.7636C1.39025 16.5961 1.35464 16.4167 1.35474 16.2354V2.4817ZM7.89118 7.3983H10.1273V8.52124C10.4501 7.8757 11.2758 7.29471 12.5165 7.29471C14.8953 7.29471 15.459 8.58054 15.459 10.9398V15.3099H13.0517V11.4772C13.0517 10.1336 12.729 9.37545 11.9093 9.37545C10.7721 9.37545 10.2992 10.1929 10.2992 11.4772V15.3099H7.89118V7.3983ZM3.76274 15.2071H6.17075V7.29471H3.76274V15.2063V15.2071ZM6.51529 4.71406C6.51983 4.92024 6.48314 5.12525 6.40738 5.31705C6.33161 5.50886 6.2183 5.6836 6.07409 5.83102C5.92988 5.97844 5.75768 6.09557 5.56759 6.17554C5.3775 6.2555 5.17335 6.2967 4.96712 6.2967C4.7609 6.2967 4.55675 6.2555 4.36666 6.17554C4.17656 6.09557 4.00436 5.97844 3.86015 5.83102C3.71594 5.6836 3.60263 5.50886 3.52687 5.31705C3.4511 5.12525 3.41442 4.92024 3.41896 4.71406C3.42787 4.30937 3.59489 3.92425 3.88426 3.64118C4.17363 3.35812 4.56233 3.19961 4.96712 3.19961C5.37192 3.19961 5.76062 3.35812 6.04999 3.64118C6.33935 3.92425 6.50638 4.30937 6.51529 4.71406Z" fill="white"/>
</svg>
