<svg width="25" height="25" viewBox="0 0 25 25" fill="none" xmlns="http://www.w3.org/2000/svg">
<path fill-rule="evenodd" clip-rule="evenodd" d="M12.7092 2.1582C17.2619 2.1582 20.966 5.89031 20.966 10.4781C20.966 16.1178 14.5046 21.6745 12.7092 21.6745C10.9137 21.6745 4.45227 16.1178 4.45227 10.4781C4.45227 5.89031 8.15636 2.1582 12.7092 2.1582ZM12.7092 3.65945C8.98405 3.65945 5.95352 6.719 5.95352 10.4781C5.95352 15.2611 11.5822 19.921 12.7092 20.1692C13.8361 19.92 19.4648 15.2601 19.4648 10.4781C19.4648 6.719 16.4343 3.65945 12.7092 3.65945ZM12.7102 7.16237C14.5036 7.16237 15.9629 8.62159 15.9629 10.4161C15.9629 12.2096 14.5036 13.6678 12.7102 13.6678C10.9167 13.6678 9.45744 12.2096 9.45744 10.4161C9.45744 8.62159 10.9167 7.16237 12.7102 7.16237ZM12.7102 8.66363C11.7443 8.66363 10.9587 9.44928 10.9587 10.4161C10.9587 11.3819 11.7443 12.1665 12.7102 12.1665C13.676 12.1665 14.4616 11.3819 14.4616 10.4161C14.4616 9.44928 13.676 8.66363 12.7102 8.66363Z" fill="white"/>
</svg>
