<svg width="25" height="25" viewBox="0 0 25 25" fill="none" xmlns="http://www.w3.org/2000/svg">
<path fill-rule="evenodd" clip-rule="evenodd" d="M17.1166 2.12646C20.4494 2.12646 22.9625 4.84573 22.9625 8.45174V15.3255C22.9625 17.171 22.31 18.8384 21.124 20.0214C20.0601 21.0813 18.6799 21.6427 17.1327 21.6427H7.27144C5.72715 21.6427 4.348 21.0823 3.28311 20.0214C2.09712 18.8384 1.44458 17.171 1.44458 15.3255V8.45174C1.44458 4.84573 3.95767 2.12646 7.29045 2.12646H17.1166ZM17.1166 3.62772H7.29045C4.77335 3.62772 2.94583 5.65641 2.94583 8.45174V15.3255C2.94583 16.7697 3.44225 18.0597 4.343 18.9575C5.11964 19.7331 6.13349 20.1415 7.27444 20.1415H17.1166C17.1186 20.1395 17.1267 20.1415 17.1327 20.1415C18.2746 20.1415 19.2875 19.7331 20.0641 18.9575C20.9659 18.0597 21.4613 16.7697 21.4613 15.3255V8.45174C21.4613 5.65641 19.6337 3.62772 17.1166 3.62772ZM18.694 8.26038C18.9552 8.58165 18.9061 9.05404 18.5849 9.31626L14.1372 12.9313C13.5747 13.3776 12.9021 13.6008 12.2306 13.6008C11.561 13.6008 10.8935 13.3796 10.335 12.9373L5.84625 9.31826C5.52298 9.05804 5.47294 8.58465 5.73215 8.26238C5.99337 7.94111 6.46577 7.89007 6.78803 8.14928L11.2728 11.7643C11.8362 12.2107 12.6299 12.2107 13.1974 11.7603L17.6371 8.15129C17.9593 7.88807 18.4317 7.93811 18.694 8.26038Z" fill="white"/>
</svg>
