<svg width="19" height="19" viewBox="0 0 19 19" fill="none" xmlns="http://www.w3.org/2000/svg">
<g clip-path="url(#clip0_3_467)">
<path d="M18.1733 4.05318C17.5466 4.33091 16.8733 4.51856 16.1654 4.60339C16.8958 4.16637 17.4422 3.47855 17.7027 2.66827C17.0165 3.07585 16.2655 3.36275 15.4824 3.51648C14.9557 2.95416 14.2581 2.58144 13.4979 2.4562C12.7378 2.33096 11.9575 2.46019 11.2783 2.82384C10.5991 3.18749 10.0589 3.76521 9.74168 4.4673C9.42445 5.16939 9.34789 5.95658 9.52388 6.70664C8.13349 6.63683 6.77331 6.27544 5.53163 5.64593C4.28994 5.01643 3.19449 4.13286 2.31638 3.05259C2.01613 3.57052 1.84348 4.17103 1.84348 4.81056C1.84315 5.38628 1.98493 5.95319 2.25624 6.46098C2.52755 6.96877 2.92 7.40175 3.39878 7.72148C2.84352 7.70382 2.30052 7.55378 1.81496 7.28387V7.32891C1.8149 8.13639 2.09422 8.91902 2.60551 9.544C3.11679 10.169 3.82857 10.5978 4.62005 10.7578C4.10496 10.8972 3.56492 10.9177 3.04073 10.8178C3.26404 11.5126 3.69903 12.1202 4.28479 12.5555C4.87056 12.9907 5.57778 13.232 6.30745 13.2453C5.0688 14.2177 3.53906 14.7452 1.96433 14.7428C1.68539 14.7429 1.40668 14.7266 1.12964 14.694C2.72808 15.7218 4.58878 16.2672 6.48911 16.2651C12.922 16.2651 16.4386 10.9372 16.4386 6.31631C16.4386 6.16619 16.4349 6.01456 16.4281 5.86444C17.1122 5.36975 17.7026 4.75719 18.1718 4.05543L18.1733 4.05318Z" fill="white"/>
</g>
<defs>
<clipPath id="clip0_3_467">
<rect width="18.015" height="18.015" fill="white" transform="translate(0.424561 0.349609)"/>
</clipPath>
</defs>
</svg>
