<svg width="22" height="23" viewBox="0 0 22 23" fill="none" xmlns="http://www.w3.org/2000/svg">
<path fill-rule="evenodd" clip-rule="evenodd" d="M3.76039 10.384C5.81966 10.497 7.89867 10.5348 9.99752 10.4974C10.0352 14.6748 9.99729 18.8329 9.88412 22.9716C6.30174 21.048 3.65571 18.2319 1.94595 14.5231C3.07997 14.4475 4.214 14.4475 5.34802 14.5231C5.82023 15.2402 6.3116 15.9395 6.82225 16.6211C6.82906 16.6827 6.86682 16.7204 6.93566 16.7345C7.04883 15.6408 7.08671 14.5447 7.04906 13.4458C5.19682 13.4458 3.34458 13.4458 1.49234 13.4458C0.38695 10.4424 -0.104468 7.34271 0.0181091 4.14682C3.04636 2.01922 6.4106 0.847391 10.1109 0.631348C10.147 1.68039 10.1092 2.7199 9.99752 3.74991C7.53261 3.89788 5.24569 4.5972 3.13667 5.84786C3.11051 7.39197 3.31843 8.90405 3.76039 10.384Z" fill="url(#paint0_linear_3_471)" fill-opacity="0.55"/>
<path fill-rule="evenodd" clip-rule="evenodd" d="M3.76039 10.384C5.81966 10.497 7.89867 10.5348 9.99752 10.4974C10.0352 14.6748 9.99729 18.8329 9.88412 22.9716C6.30174 21.048 3.65571 18.2319 1.94595 14.5231C3.07997 14.4475 4.214 14.4475 5.34802 14.5231C5.82023 15.2402 6.3116 15.9395 6.82225 16.6211C6.82906 16.6827 6.86682 16.7204 6.93566 16.7345C7.04883 15.6408 7.08671 14.5447 7.04906 13.4458C5.19682 13.4458 3.34458 13.4458 1.49234 13.4458C0.38695 10.4424 -0.104468 7.34271 0.0181091 4.14682C3.04636 2.01922 6.4106 0.847391 10.1109 0.631348C10.147 1.68039 10.1092 2.7199 9.99752 3.74991C7.53261 3.89788 5.24569 4.5972 3.13667 5.84786C3.11051 7.39197 3.31843 8.90405 3.76039 10.384Z" fill="url(#paint1_linear_3_471)" fill-opacity="0.34"/>
<path fill-rule="evenodd" clip-rule="evenodd" d="M3.76039 10.384C5.81966 10.497 7.89867 10.5348 9.99752 10.4974C10.0352 14.6748 9.99729 18.8329 9.88412 22.9716C6.30174 21.048 3.65571 18.2319 1.94595 14.5231C3.07997 14.4475 4.214 14.4475 5.34802 14.5231C5.82023 15.2402 6.3116 15.9395 6.82225 16.6211C6.82906 16.6827 6.86682 16.7204 6.93566 16.7345C7.04883 15.6408 7.08671 14.5447 7.04906 13.4458C5.19682 13.4458 3.34458 13.4458 1.49234 13.4458C0.38695 10.4424 -0.104468 7.34271 0.0181091 4.14682C3.04636 2.01922 6.4106 0.847391 10.1109 0.631348C10.147 1.68039 10.1092 2.7199 9.99752 3.74991C7.53261 3.89788 5.24569 4.5972 3.13667 5.84786C3.11051 7.39197 3.31843 8.90405 3.76039 10.384Z" fill="url(#paint2_linear_3_471)"/>
<path fill-rule="evenodd" clip-rule="evenodd" d="M3.76039 10.384C5.81966 10.497 7.89867 10.5348 9.99752 10.4974C10.0352 14.6748 9.99729 18.8329 9.88412 22.9716C6.30174 21.048 3.65571 18.2319 1.94595 14.5231C3.07997 14.4475 4.214 14.4475 5.34802 14.5231C5.82023 15.2402 6.3116 15.9395 6.82225 16.6211C6.82906 16.6827 6.86682 16.7204 6.93566 16.7345C7.04883 15.6408 7.08671 14.5447 7.04906 13.4458C5.19682 13.4458 3.34458 13.4458 1.49234 13.4458C0.38695 10.4424 -0.104468 7.34271 0.0181091 4.14682C3.04636 2.01922 6.4106 0.847391 10.1109 0.631348C10.147 1.68039 10.1092 2.7199 9.99752 3.74991C7.53261 3.89788 5.24569 4.5972 3.13667 5.84786C3.11051 7.39197 3.31843 8.90405 3.76039 10.384Z" fill="#FEFEFE"/>
<path fill-rule="evenodd" clip-rule="evenodd" d="M11.4665 0.631348C15.101 0.948137 18.4275 2.11996 21.4459 4.14682C21.5514 5.89764 21.438 7.63649 21.1057 9.36333C20.0403 9.43568 19.0197 9.36004 18.0438 9.13653C18.2601 8.04957 18.3546 6.95333 18.3273 5.84786C17.1256 5.15153 15.8592 4.62233 14.5284 4.26022C14.3775 8.39964 14.3775 12.5578 14.5284 16.7345C14.5972 16.7204 14.635 16.6827 14.6418 16.6211C15.3845 15.7262 15.9893 14.7435 16.4562 13.6726C16.5178 13.6658 16.5555 13.6281 16.5696 13.5592C16.2376 13.4476 15.8973 13.4099 15.549 13.4458C15.549 12.4252 15.549 11.4046 15.549 10.384C17.3272 10.3462 19.1039 10.3841 20.8789 10.4974C19.621 16.0599 16.5214 20.218 11.5799 22.9716C11.4666 15.544 11.4288 8.0972 11.4665 0.631348Z" fill="url(#paint3_linear_3_471)" fill-opacity="0.55"/>
<path fill-rule="evenodd" clip-rule="evenodd" d="M11.4665 0.631348C15.101 0.948137 18.4275 2.11996 21.4459 4.14682C21.5514 5.89764 21.438 7.63649 21.1057 9.36333C20.0403 9.43568 19.0197 9.36004 18.0438 9.13653C18.2601 8.04957 18.3546 6.95333 18.3273 5.84786C17.1256 5.15153 15.8592 4.62233 14.5284 4.26022C14.3775 8.39964 14.3775 12.5578 14.5284 16.7345C14.5972 16.7204 14.635 16.6827 14.6418 16.6211C15.3845 15.7262 15.9893 14.7435 16.4562 13.6726C16.5178 13.6658 16.5555 13.6281 16.5696 13.5592C16.2376 13.4476 15.8973 13.4099 15.549 13.4458C15.549 12.4252 15.549 11.4046 15.549 10.384C17.3272 10.3462 19.1039 10.3841 20.8789 10.4974C19.621 16.0599 16.5214 20.218 11.5799 22.9716C11.4666 15.544 11.4288 8.0972 11.4665 0.631348Z" fill="url(#paint4_linear_3_471)" fill-opacity="0.34"/>
<path fill-rule="evenodd" clip-rule="evenodd" d="M11.4665 0.631348C15.101 0.948137 18.4275 2.11996 21.4459 4.14682C21.5514 5.89764 21.438 7.63649 21.1057 9.36333C20.0403 9.43568 19.0197 9.36004 18.0438 9.13653C18.2601 8.04957 18.3546 6.95333 18.3273 5.84786C17.1256 5.15153 15.8592 4.62233 14.5284 4.26022C14.3775 8.39964 14.3775 12.5578 14.5284 16.7345C14.5972 16.7204 14.635 16.6827 14.6418 16.6211C15.3845 15.7262 15.9893 14.7435 16.4562 13.6726C16.5178 13.6658 16.5555 13.6281 16.5696 13.5592C16.2376 13.4476 15.8973 13.4099 15.549 13.4458C15.549 12.4252 15.549 11.4046 15.549 10.384C17.3272 10.3462 19.1039 10.3841 20.8789 10.4974C19.621 16.0599 16.5214 20.218 11.5799 22.9716C11.4666 15.544 11.4288 8.0972 11.4665 0.631348Z" fill="url(#paint5_linear_3_471)"/>
<path fill-rule="evenodd" clip-rule="evenodd" d="M11.4665 0.631348C15.101 0.948137 18.4275 2.11996 21.4459 4.14682C21.5514 5.89764 21.438 7.63649 21.1057 9.36333C20.0403 9.43568 19.0197 9.36004 18.0438 9.13653C18.2601 8.04957 18.3546 6.95333 18.3273 5.84786C17.1256 5.15153 15.8592 4.62233 14.5284 4.26022C14.3775 8.39964 14.3775 12.5578 14.5284 16.7345C14.5972 16.7204 14.635 16.6827 14.6418 16.6211C15.3845 15.7262 15.9893 14.7435 16.4562 13.6726C16.5178 13.6658 16.5555 13.6281 16.5696 13.5592C16.2376 13.4476 15.8973 13.4099 15.549 13.4458C15.549 12.4252 15.549 11.4046 15.549 10.384C17.3272 10.3462 19.1039 10.3841 20.8789 10.4974C19.621 16.0599 16.5214 20.218 11.5799 22.9716C11.4666 15.544 11.4288 8.0972 11.4665 0.631348Z" fill="#FEFEFE"/>
<defs>
<linearGradient id="paint0_linear_3_471" x1="5.26956" y1="-9.81245" x2="-1.03146" y2="24.4446" gradientUnits="userSpaceOnUse">
<stop stop-color="#B89FFE"/>
<stop offset="0.964202" stop-color="#26035D"/>
</linearGradient>
<linearGradient id="paint1_linear_3_471" x1="5.37749" y1="18.6796" x2="13.5281" y2="-6.67158" gradientUnits="userSpaceOnUse">
<stop stop-color="#4D26BC"/>
<stop offset="0.817308" stop-color="#F3EFFF"/>
</linearGradient>
<linearGradient id="paint2_linear_3_471" x1="1.35011" y1="-7.53669" x2="17.4818" y2="24.9658" gradientUnits="userSpaceOnUse">
<stop offset="0.157996" stop-color="#1CDBDA"/>
<stop offset="0.524038" stop-color="#6D3DE4"/>
<stop offset="0.947115" stop-color="#200A57"/>
</linearGradient>
<linearGradient id="paint3_linear_3_471" x1="16.6739" y1="-9.81245" x2="10.3185" y2="24.4238" gradientUnits="userSpaceOnUse">
<stop stop-color="#B89FFE"/>
<stop offset="0.964202" stop-color="#26035D"/>
</linearGradient>
<linearGradient id="paint4_linear_3_471" x1="16.7809" y1="18.6796" x2="24.9925" y2="-6.62753" gradientUnits="userSpaceOnUse">
<stop stop-color="#4D26BC"/>
<stop offset="0.817308" stop-color="#F3EFFF"/>
</linearGradient>
<linearGradient id="paint5_linear_3_471" x1="12.7904" y1="-7.53669" x2="29.0117" y2="24.8469" gradientUnits="userSpaceOnUse">
<stop offset="0.157996" stop-color="#1CDBDA"/>
<stop offset="0.524038" stop-color="#6D3DE4"/>
<stop offset="0.947115" stop-color="#200A57"/>
</linearGradient>
</defs>
</svg>
