<svg width="53" height="53" viewBox="0 0 53 53" fill="none" xmlns="http://www.w3.org/2000/svg">
<rect width="53" height="53" rx="13" fill="#3D0066"/>
<path d="M47.4604 11.4124C48.2052 12.5035 51.7593 13.6267 51.7593 13.6267C51.7593 13.6267 48.2814 12.9849 47.0878 13.5154C45.7081 14.1287 44.7105 18.1354 44.7105 18.1354C44.7105 18.1354 45.3466 14.0861 44.4123 12.9482C43.4828 11.8163 40.151 11.1658 40.151 11.1658C40.151 11.1658 43.7514 11.6032 44.9623 10.8829C46.0681 10.2251 47.077 7.23614 47.077 7.23614C47.077 7.23614 46.7443 10.3633 47.4604 11.4124Z" fill="white"/>
<path fill-rule="evenodd" clip-rule="evenodd" d="M14.2545 24.2357C17.6794 24.4237 21.1371 24.4865 24.6278 24.4243C24.6904 31.3719 24.6274 38.2875 24.4392 45.1708C18.4811 41.9715 14.0804 37.2879 11.2368 31.1197C13.1229 30.9939 15.0089 30.9939 16.895 31.1197C17.6803 32.3123 18.4975 33.4754 19.3468 34.6089C19.3581 34.7113 19.4209 34.7741 19.5354 34.7975C19.7237 32.9786 19.7867 31.1556 19.724 29.328C16.6435 29.328 13.5629 29.328 10.4824 29.328C8.64396 24.3328 7.82666 19.1776 8.03052 13.8624C13.067 10.3239 18.6622 8.37494 24.8164 8.01562C24.8763 9.76033 24.8135 11.4892 24.6278 13.2023C20.5282 13.4484 16.7248 14.6114 13.2172 16.6915C13.1737 19.2595 13.5194 21.7744 14.2545 24.2357Z" fill="white"/>
<path fill-rule="evenodd" clip-rule="evenodd" d="M27.0703 8.01172C33.1151 8.53859 38.6475 10.4875 43.6676 13.8585C43.843 16.7703 43.6544 19.6623 43.1017 22.5343C41.3298 22.6546 39.6324 22.5288 38.0094 22.1571C38.3691 20.3493 38.5262 18.5261 38.4809 16.6875C36.4823 15.5295 34.3761 14.6493 32.1627 14.0471C31.9118 20.9315 31.9118 27.8471 32.1627 34.7936C32.2771 34.7702 32.3399 34.7074 32.3513 34.605C33.5866 33.1167 34.5925 31.4823 35.3689 29.7013C35.4713 29.69 35.5342 29.6272 35.5575 29.5127C35.0053 29.3271 34.4395 29.2643 33.8601 29.3241C33.8601 27.6266 33.8601 25.9292 33.8601 24.2317C36.8176 24.1689 39.7725 24.2319 42.7245 24.4204C40.6325 33.6716 35.4774 40.5872 27.2589 45.1669C27.0705 32.8136 27.0077 20.4285 27.0703 8.01172Z" fill="white"/>
</svg>
